<?xml version="1.0" encoding="UTF-8" standalone="no"?>
<!-- Created with Inkscape (http://www.inkscape.org/) -->

<svg
   version="1.1"
   id="svg1"
   width="655.35999"
   height="655.35999"
   viewBox="0 0 655.35999 655.35999"
   sodipodi:docname="brain.png"
   xml:space="preserve"
   inkscape:export-filename="join5.svg"
   inkscape:export-xdpi="96"
   inkscape:export-ydpi="96"
   xmlns:inkscape="http://www.inkscape.org/namespaces/inkscape"
   xmlns:sodipodi="http://sodipodi.sourceforge.net/DTD/sodipodi-0.dtd"
   xmlns="http://www.w3.org/2000/svg"
   xmlns:svg="http://www.w3.org/2000/svg"><defs
     id="defs1"><marker
       style="overflow:visible"
       id="RoundedArrow-2"
       refX="0"
       refY="0"
       orient="auto-start-reverse"
       markerWidth="0.5"
       markerHeight="0.80000001"
       viewBox="0 0 1 1"
       preserveAspectRatio="xMidYMid"><path
         transform="scale(0.7)"
         d="m -0.21114562,-4.1055728 6.42229122,3.21114561 a 1,1 90 0 1 0,1.78885438 L -0.21114562,4.1055728 A 1.236068,1.236068 31.717474 0 1 -2,3 v -6 a 1.236068,1.236068 148.28253 0 1 1.78885438,-1.1055728 z"
         style="fill:context-stroke;fill-rule:evenodd;stroke:none"
         id="path49-9" /></marker><marker
       style="overflow:visible"
       id="RoundedArrow-4"
       refX="0"
       refY="0"
       orient="auto-start-reverse"
       markerWidth="0.5"
       markerHeight="0.80000001"
       viewBox="0 0 1 1"
       preserveAspectRatio="xMidYMid"><path
         transform="scale(0.7)"
         d="m -0.21114562,-4.1055728 6.42229122,3.21114561 a 1,1 90 0 1 0,1.78885438 L -0.21114562,4.1055728 A 1.236068,1.236068 31.717474 0 1 -2,3 v -6 a 1.236068,1.236068 148.28253 0 1 1.78885438,-1.1055728 z"
         style="fill:context-stroke;fill-rule:evenodd;stroke:none"
         id="path49-7" /></marker></defs><sodipodi:namedview
     id="namedview1"
     pagecolor="#ffffff"
     bordercolor="#000000"
     borderopacity="0.25"
     inkscape:showpageshadow="2"
     inkscape:pageopacity="0.0"
     inkscape:pagecheckerboard="0"
     inkscape:deskcolor="#d1d1d1"><inkscape:page
       x="0"
       y="0"
       width="655.35999"
       height="655.35999"
       id="page2"
       margin="0"
       bleed="0" /></sodipodi:namedview><g
     inkscape:groupmode="layer"
     inkscape:label="Image"
     id="g1"><g
       id="layer1"
       transform="matrix(6.4753912,0,0,6.4753912,-50.403917,-50.813597)"><circle
         style="opacity:1;fill:#e5e5e5;fill-opacity:1;stroke:none;stroke-width:7.11593;stroke-linejoin:bevel;stroke-dasharray:none;stroke-opacity:1;paint-order:markers fill stroke"
         id="path54"
         cx="58.38781"
         cy="58.435726"
         r="42.0233" /><path
         style="fill:none;fill-opacity:1;stroke:#5f5f5f;stroke-width:4.69181;stroke-linejoin:bevel;stroke-dasharray:none;stroke-opacity:1;marker-start:url(#RoundedArrow-2);paint-order:markers fill stroke"
         d="m 33.2219,55.592793 c 24.85091,7.55414 24.85091,7.55414 25.3534,44.839647 v 0"
         id="path55" /><path
         style="fill:none;fill-opacity:1;stroke:#5f5f5f;stroke-width:4.69181;stroke-linejoin:bevel;stroke-dasharray:none;stroke-opacity:1;marker-start:url(#RoundedArrow-2);paint-order:markers fill stroke"
         d="m 83.55262,55.592793 c -24.85091,7.55414 -24.85091,7.55414 -25.35341,44.839647 v 0"
         id="path56" /><path
         style="fill:none;fill-opacity:1;stroke:#5f5f5f;stroke-width:4.86461;stroke-linejoin:bevel;stroke-dasharray:none;stroke-opacity:1;marker-start:url(#RoundedArrow-2);paint-order:markers fill stroke"
         d="m 58.38779,36.188873 c 0,1.60675 0,61.056665 0,64.270167"
         id="path57" /><path
         style="fill:none;fill-opacity:1;stroke:#5f5f5f;stroke-width:4.69181;stroke-linejoin:bevel;stroke-dasharray:none;stroke-opacity:1;marker-start:url(#RoundedArrow-2);paint-order:markers fill stroke"
         d="m 80.68921,78.039203 c -4.56307,0 -20.63492,5.29531 -20.8235,22.393237 v 0"
         id="path58" /><path
         style="fill:none;fill-opacity:1;stroke:#5f5f5f;stroke-width:4.69181;stroke-linejoin:bevel;stroke-dasharray:none;stroke-opacity:1;marker-start:url(#RoundedArrow-2);paint-order:markers fill stroke"
         d="m 35.70926,78.039203 c 4.56306,0 20.6349,5.29531 20.82349,22.393237 v 0"
         id="path59" /><path
         style="fill:#000000;fill-opacity:0;stroke:#d3d3d3;stroke-width:4.83362;stroke-linejoin:bevel;stroke-dasharray:none;stroke-opacity:1;marker-start:url(#RoundedArrow-2);paint-order:markers fill stroke"
         d="m 33.03754,52.862423 c 24.84785,8.0186 24.84785,8.0186 25.35025,47.596627 v 0"
         id="path74" /><path
         style="fill:#000000;fill-opacity:0;stroke:#d3d3d3;stroke-width:4.83362;stroke-linejoin:bevel;stroke-dasharray:none;stroke-opacity:1;marker-start:url(#RoundedArrow-2);paint-order:markers fill stroke"
         d="m 83.84853,52.862423 c -24.84783,8.0186 -24.84783,8.0186 -25.35026,47.596627 v 0"
         id="path75" /><path
         style="fill:#000000;fill-opacity:0;stroke:#d3d3d3;stroke-width:4.83362;stroke-linejoin:bevel;stroke-dasharray:none;stroke-opacity:1;marker-start:url(#RoundedArrow-2);paint-order:markers fill stroke"
         d="m 79.31918,76.688953 c -4.5625,0 -20.63236,5.6209 -20.82091,23.770097 v 0"
         id="path77" /><path
         style="fill:#000000;fill-opacity:0;stroke:#d3d3d3;stroke-width:4.83362;stroke-linejoin:bevel;stroke-dasharray:none;stroke-opacity:1;marker-start:url(#RoundedArrow-2);paint-order:markers fill stroke"
         d="m 37.67739,76.688953 c 4.56247,0 20.63233,5.6209 20.82088,23.770097 v 0"
         id="path78" /><path
         style="fill:#000000;fill-opacity:0;stroke:#0a5200;stroke-width:5.01161;stroke-linejoin:bevel;stroke-dasharray:none;stroke-opacity:1;marker-start:url(#RoundedArrow-2);paint-order:markers fill stroke"
         d="m 58.38779,32.265443 c 0,1.70554 0,64.810745 0,68.221827"
         id="path76" /></g><g
       id="layer1-8"
       transform="matrix(6.4426265,0,0,6.4426265,-54.305906,-40.249591)"><ellipse
         style="fill:#e5e5e5;fill-opacity:1;stroke:none;stroke-width:2.54538;stroke-linejoin:bevel;stroke-dasharray:none;stroke-opacity:1;paint-order:markers fill stroke"
         id="ellipse111"
         cx="58.361431"
         cy="58.956158"
         rx="45.673183"
         ry="44.089752" /><rect
         style="fill:#0a5200;fill-opacity:1;stroke:none;stroke-width:1.87724;stroke-linejoin:bevel;stroke-dasharray:none;stroke-opacity:1;paint-order:markers fill stroke"
         id="rect88"
         width="7.8731494"
         height="8.7479763"
         x="-58.394146"
         y="85.819168"
         transform="rotate(-90)" /><path
         style="fill:#0a5200;fill-opacity:1;stroke:none;stroke-width:1.131;stroke-linejoin:bevel;stroke-dasharray:none;stroke-opacity:1;paint-order:markers fill stroke"
         id="path89"
         width="9"
         height="4.5888591"
         x="8"
         y="55.41114"
         d="m 10.588858,55.41114 h 3.822284 A 2.5888579,2.5888579 45 0 1 17,57.999998 V 60 H 8 v -2.000002 a 2.5888579,2.5888579 135 0 1 2.588858,-2.588858 z"
         transform="matrix(1.7495943,0,0,1.5746299,36.830531,-59.703146)" /><path
         style="fill:#0a5200;fill-opacity:1;stroke:none;stroke-width:1.131;stroke-linejoin:bevel;stroke-dasharray:none;stroke-opacity:1;paint-order:markers fill stroke"
         id="path91"
         width="9"
         height="4.5888591"
         x="8"
         y="55.41114"
         d="m 10.588858,55.41114 h 3.822284 A 2.5888579,2.5888579 45 0 1 17,57.999998 V 60 H 8 v -2.000002 a 2.5888579,2.5888579 135 0 1 2.588858,-2.588858 z"
         transform="matrix(1.7495953,0,0,1.5746297,68.323181,-28.210457)" /><path
         style="fill:#0a5200;fill-opacity:1;stroke:none;stroke-width:1.131;stroke-linejoin:bevel;stroke-dasharray:none;stroke-opacity:1;paint-order:markers fill stroke"
         id="path92"
         width="9"
         height="4.5888591"
         x="8"
         y="55.41114"
         d="m 10.588858,55.41114 h 3.822284 A 2.5888579,2.5888579 45 0 1 17,57.999998 V 60 H 8 v -2.000002 a 2.5888579,2.5888579 135 0 1 2.588858,-2.588858 z"
         transform="matrix(-1.7495933,0,0,1.4145132,49.077691,-18.507237)" /><ellipse
         style="fill:#0a5200;fill-opacity:1;stroke:none;stroke-width:1.87724;stroke-linejoin:bevel;stroke-dasharray:none;stroke-opacity:1;paint-order:markers fill stroke"
         id="ellipse92"
         cx="58.700451"
         cy="22.964884"
         rx="4.3739862"
         ry="3.9365747" /><path
         style="fill:#0a5200;fill-opacity:1;stroke:none;stroke-width:1.131;stroke-linejoin:bevel;stroke-dasharray:none;stroke-opacity:1;paint-order:markers fill stroke"
         id="path90"
         width="9"
         height="4.5888591"
         x="8"
         y="55.41114"
         d="m 10.588858,55.41114 h 3.822284 A 2.5888579,2.5888579 45 0 1 17,57.999998 V 60 H 8 v -2.000002 a 2.5888579,2.5888579 135 0 1 2.588858,-2.588858 z"
         transform="matrix(-1.7495925,0,0,1.5746324,80.570341,0.11579321)" /><path
         style="fill:#0a5200;fill-opacity:1;stroke:none;stroke-width:1.87724;stroke-linejoin:bevel;stroke-dasharray:none;stroke-opacity:1;paint-order:markers fill stroke"
         d="m 58.700431,78.847403 4.37399,7.87317 h -8.74797 z"
         id="path93" /><path
         style="fill:#0a5200;fill-opacity:1;stroke:none;stroke-width:1.39327;stroke-linejoin:bevel;stroke-dasharray:none;stroke-opacity:1;paint-order:markers fill stroke"
         d="m 27.207771,50.617223 -4.37399,4.33686 4.37399,4.33685 4.374,-4.33685 z"
         id="path94" /><path
         style="fill:none;fill-opacity:1;stroke:#000000;stroke-width:1.85436;stroke-linejoin:bevel;stroke-dasharray:none;stroke-opacity:1;marker-start:url(#RoundedArrow-4);paint-order:markers fill stroke"
         d="m 86.102531,39.996853 c -1.31863,-4.26475 -6.69897,-10.62962 -13.21083,-10.5934"
         id="path107" /><path
         style="fill:none;fill-opacity:1;stroke:#000000;stroke-width:1.85436;stroke-linejoin:bevel;stroke-dasharray:none;stroke-opacity:1;marker-start:url(#RoundedArrow-4);paint-order:markers fill stroke"
         d="m 80.247001,85.781863 c 4.26478,-1.31864 10.62963,-6.69898 10.59341,-13.21084"
         id="path114" /><path
         style="fill:none;fill-opacity:1;stroke:#000000;stroke-width:1.85436;stroke-linejoin:bevel;stroke-dasharray:none;stroke-opacity:1;marker-start:url(#RoundedArrow-4);paint-order:markers fill stroke"
         d="m 31.298361,76.791453 c 1.31864,4.26477 6.69898,10.62963 13.21084,10.59342"
         id="path115" /><path
         style="fill:none;fill-opacity:1;stroke:#000000;stroke-width:1.85436;stroke-linejoin:bevel;stroke-dasharray:none;stroke-opacity:1;marker-start:url(#RoundedArrow-4);paint-order:markers fill stroke"
         d="m 40.305711,30.992083 c -4.26476,1.31863 -10.62962,6.69897 -10.59341,13.21084"
         id="path116" /><path
         id="path117"
         style="fill:#ffffff;fill-opacity:1;stroke:#000000;stroke-width:0.291636;stroke-linejoin:bevel;stroke-dasharray:none;stroke-opacity:1;paint-order:markers fill stroke"
         d="m 62.977511,71.438213 h -7.95813 a 9.4478035,23.393056 0 0 0 3.97906,2.18632 9.4478035,23.393056 0 0 0 3.97907,-2.18632 z" /><path
         id="path118"
         style="fill:#ffffff;fill-opacity:1;stroke:#000000;stroke-width:0.291636;stroke-linejoin:bevel;stroke-dasharray:none;stroke-opacity:1;paint-order:markers fill stroke"
         d="m 58.998441,43.210573 c -5.2177,3.6e-4 -9.44729,4.93527 -9.44723,11.02258 0.002,4.28819 0.47714,8.26789 3.81074,10.07418 l 3.16606,-0.0818 -0.022,-6.23306 c 0.33527,-0.13001 -4.3919,0.44321 -2.83497,-2.79429 2.28551,-4.75245 4.4826,0.63195 4.33711,0.60866 l 0.0472,8.41869 h 1.84391 l 0.0457,-8.41869 c -0.1455,0.0233 2.05319,-5.36111 4.33871,-0.60866 1.55694,3.2375 -3.17024,2.66428 -2.83497,2.79429 l -0.022,6.23306 3.4276,-0.0408 c 3.33359,-1.80629 3.59,-5.66337 3.59148,-9.95154 6e-5,-6.08732 -4.22953,-11.02221 -9.44723,-11.02258 z" /><path
         style="fill:#ffffff;fill-opacity:1;stroke:#000000;stroke-width:0.0926042;stroke-linejoin:bevel;stroke-dasharray:none;stroke-opacity:1;paint-order:markers fill stroke"
         id="rect118"
         width="3.6491802"
         height="1.380374"
         x="125.21021"
         y="57.079933"
         d="m 125.21021,57.079933 h 3.64918 v 0.784471 a 0.59590288,0.59590288 135 0 1 -0.5959,0.595903 h -2.59297 a 0.46030876,0.46030876 45 0 1 -0.46031,-0.460309 z"
         transform="matrix(3.1492679,0,0,3.1492679,-340.95857,-114.25299)" /><path
         style="fill:#f9f9f9;fill-opacity:1;stroke:#000000;stroke-width:0.0926042;stroke-linejoin:bevel;stroke-dasharray:none;stroke-opacity:1;paint-order:markers fill stroke"
         id="rect120"
         width="0.42139888"
         height="0.99999994"
         x="127"
         y="47.999996"
         d="m 127.13229,47.999996 h 0.15682 a 0.13229166,0.13229166 45 0 1 0.13229,0.132292 v 0.735416 a 0.13229166,0.13229166 135 0 1 -0.13229,0.132292 h -0.15682 A 0.13229166,0.13229166 45 0 1 127,48.867704 v -0.735416 a 0.13229166,0.13229166 135 0 1 0.13229,-0.132292 z"
         transform="matrix(3.1492679,0,0,3.1492679,-341.62212,-113.43554)" /><path
         style="fill:#f9f9f9;fill-opacity:1;stroke:#000000;stroke-width:0.0926042;stroke-linejoin:bevel;stroke-dasharray:none;stroke-opacity:1;paint-order:markers fill stroke"
         id="path120"
         width="0.42139888"
         height="0.99999994"
         x="127"
         y="47.999996"
         d="m 127.13229,47.999996 h 0.15682 a 0.13229166,0.13229166 45 0 1 0.13229,0.132292 v 0.735416 a 0.13229166,0.13229166 135 0 1 -0.13229,0.132292 h -0.15682 A 0.13229166,0.13229166 45 0 1 127,48.867704 v -0.735416 a 0.13229166,0.13229166 135 0 1 0.13229,-0.132292 z"
         transform="matrix(2.430479,2.0026632,-2.0026632,2.430479,-145.75546,-331.47728)" /><path
         style="fill:#f9f9f9;fill-opacity:1;stroke:#000000;stroke-width:0.0926042;stroke-linejoin:bevel;stroke-dasharray:none;stroke-opacity:1;paint-order:markers fill stroke"
         id="path122"
         width="0.42139888"
         height="0.99999994"
         x="127"
         y="47.999996"
         d="m 127.13229,47.999996 h 0.15682 a 0.13229166,0.13229166 45 0 1 0.13229,0.132292 v 0.735416 a 0.13229166,0.13229166 135 0 1 -0.13229,0.132292 h -0.15682 A 0.13229166,0.13229166 45 0 1 127,48.867704 v -0.735416 a 0.13229166,0.13229166 135 0 1 0.13229,-0.132292 z"
         transform="matrix(1.5853804,2.7211133,-2.7211133,1.5853804,1.3800713,-376.46662)" /><path
         style="fill:#f9f9f9;fill-opacity:1;stroke:#000000;stroke-width:0.0926042;stroke-linejoin:bevel;stroke-dasharray:none;stroke-opacity:1;paint-order:markers fill stroke"
         id="path124"
         width="0.42139888"
         height="0.99999994"
         x="127"
         y="47.999996"
         d="m 127.13229,47.999996 h 0.15682 a 0.13229166,0.13229166 45 0 1 0.13229,0.132292 v 0.735416 a 0.13229166,0.13229166 135 0 1 -0.13229,0.132292 h -0.15682 A 0.13229166,0.13229166 45 0 1 127,48.867704 v -0.735416 a 0.13229166,0.13229166 135 0 1 0.13229,-0.132292 z"
         transform="matrix(-1.5853804,2.7211133,2.7211133,1.5853804,116.10394,-376.46664)" /><path
         style="fill:#f9f9f9;fill-opacity:1;stroke:#000000;stroke-width:0.0926042;stroke-linejoin:bevel;stroke-dasharray:none;stroke-opacity:1;paint-order:markers fill stroke"
         id="path126"
         width="0.42139888"
         height="0.99999994"
         x="127"
         y="47.999996"
         d="m 127.13229,47.999996 h 0.15682 a 0.13229166,0.13229166 45 0 1 0.13229,0.132292 v 0.735416 a 0.13229166,0.13229166 135 0 1 -0.13229,0.132292 h -0.15682 A 0.13229166,0.13229166 45 0 1 127,48.867704 v -0.735416 a 0.13229166,0.13229166 135 0 1 0.13229,-0.132292 z"
         transform="matrix(-2.4304791,2.0026632,2.0026632,2.4304791,263.75236,-331.28504)" /></g></g></svg>
