<?xml version="1.0" encoding="UTF-8" standalone="no"?>
<!-- Created with Inkscape (http://www.inkscape.org/) -->

<svg
   version="1.1"
   id="svg1"
   width="655.35999"
   height="655.35999"
   viewBox="0 0 655.35999 655.35999"
   sodipodi:docname="brain.png"
   xml:space="preserve"
   inkscape:export-filename="join1.svg"
   inkscape:export-xdpi="96"
   inkscape:export-ydpi="96"
   xmlns:inkscape="http://www.inkscape.org/namespaces/inkscape"
   xmlns:sodipodi="http://sodipodi.sourceforge.net/DTD/sodipodi-0.dtd"
   xmlns="http://www.w3.org/2000/svg"
   xmlns:svg="http://www.w3.org/2000/svg"><defs
     id="defs1" /><sodipodi:namedview
     id="namedview1"
     pagecolor="#ffffff"
     bordercolor="#000000"
     borderopacity="0.25"
     inkscape:showpageshadow="2"
     inkscape:pageopacity="0.0"
     inkscape:pagecheckerboard="0"
     inkscape:deskcolor="#d1d1d1"><inkscape:page
       x="0"
       y="0"
       width="655.35999"
       height="655.35999"
       id="page2"
       margin="0"
       bleed="0" /></sodipodi:namedview><g
     inkscape:groupmode="layer"
     inkscape:label="Image"
     id="g1"><g
       id="layer1"
       transform="matrix(5.9158716,0,0,5.9158716,-17.672061,-16.572328)"><path
         id="path25"
         style="opacity:1;fill:#e5e5e5;fill-opacity:1;stroke:none;stroke-width:1.20083;stroke-linejoin:bevel;paint-order:markers fill stroke"
         d="m 8.8961273,36.455634 v 51.063851 a 7.9111954,8.1009384 0 0 0 7.9109697,8.102972 h 77.616977 a 7.9111954,8.1009384 0 0 0 7.910936,-8.102972 V 61.114444 a 16.242124,16.883199 0 0 1 -7.790506,2.071718 16.242124,16.883199 0 0 1 -0.13667,-0.0098 15.99767,16.883199 0 0 1 -0.10739,0.0098 15.99767,16.883199 0 0 1 -0.40197,-0.04721 16.242124,16.883199 0 0 1 -2.35979,-0.281544 15.99767,16.883199 0 0 1 -1.39795,-0.315721 16.242124,16.883199 0 0 1 -1.51187,-0.558207 15.99767,16.883199 0 0 1 -2.34351,-1.181514 16.242124,16.883199 0 0 1 -0.95368,-0.631444 15.99767,16.883199 0 0 1 -1.42237,-1.106652 16.242124,16.883199 0 0 1 -0.002,-0.0016 16.242124,16.883199 0 0 1 -1.71371,-1.809701 15.99767,16.883199 0 0 1 -0.85764,-1.189652 16.242124,16.883199 0 0 1 -1.04318,-1.751113 15.99767,16.883199 0 0 1 -0.48986,-0.934145 16.242124,16.883199 0 0 1 -0.96997,-2.926118 15.99767,16.883199 0 0 1 -0.17887,-0.85603 16.242124,16.883199 0 0 1 -0.35152,-3.292292 16.242124,16.883199 0 0 1 0.32711,-3.176745 15.99767,16.883199 0 0 1 0.13195,-0.63469 16.242124,16.883199 0 0 1 0.89182,-2.87567 15.99767,16.883199 0 0 1 0.057,-0.15948 16.242124,16.883199 0 0 1 1.49562,-2.73245 15.99767,16.883199 0 0 1 0.14644,-0.26854 z m 48.5885467,2.26701 a 22.710973,23.96811 0 0 1 22.71078,23.967149 22.710973,23.96811 0 0 1 -22.71078,23.96878 22.710973,23.96811 0 0 1 -22.71079,-23.96878 22.710973,23.96811 0 0 1 22.71079,-23.967149 z" /><path
         id="path8"
         style="opacity:1;fill:#e5e5e5;fill-opacity:1;stroke:none;stroke-width:1.14425;stroke-linejoin:bevel;paint-order:markers fill stroke"
         d="M 8.8960773,32.497224 H 102.33552 v -8.42227 a 7.9111954,7.3555703 0 0 0 -7.911216,-7.35557 H 16.807277 a 7.9111954,7.3555703 0 0 0 -7.9111997,7.35557 z" /><path
         id="rect7"
         style="opacity:0.536783;fill:#666666;stroke:none;stroke-width:1.20083;stroke-linejoin:bevel;paint-order:markers fill stroke"
         d="m 102.79157,36.455314 a 12.330965,13.013529 0 0 1 0.0337,0.0306 v -0.0306 z" /><path
         style="opacity:0.536783;fill:#333333;stroke:none;stroke-width:0.3175;stroke-linejoin:bevel;paint-order:markers fill stroke"
         id="rect8"
         width="4"
         height="0.99999994"
         x="77"
         y="46.999996"
         d="m 77.529167,46.999996 h 2.941666 c 0.292251,0 0.529167,0.236916 0.529167,0.529167 0,0.260038 -0.236916,0.470833 -0.529167,0.470833 H 77.529167 C 77.236916,47.999996 77,47.76308 77,47.470829 c 0,-0.260038 0.236916,-0.470833 0.529167,-0.470833 z"
         transform="matrix(3.7375729,0,0,3.9444612,-271.42188,-141.05905)" /><path
         style="opacity:0.536783;fill:#333333;stroke:none;stroke-width:0.3175;stroke-linejoin:bevel;paint-order:markers fill stroke"
         id="path9"
         width="4"
         height="0.99999994"
         x="77"
         y="46.999996"
         d="m 77.529167,46.999996 h 2.941666 c 0.292251,0 0.529167,0.236916 0.529167,0.529167 0,0.260038 -0.236916,0.470833 -0.529167,0.470833 H 77.529167 C 77.236916,47.999996 77,47.76308 77,47.470829 c 0,-0.260038 0.236916,-0.470833 0.529167,-0.470833 z"
         transform="matrix(3.7375729,0,0,3.9444612,-271.42188,-133.18342)" /><path
         style="opacity:0.536783;fill:#333333;stroke:none;stroke-width:0.3175;stroke-linejoin:bevel;paint-order:markers fill stroke"
         id="path10"
         width="4"
         height="0.99999994"
         x="77"
         y="46.999996"
         d="m 77.529167,46.999996 h 2.941666 c 0.292251,0 0.529167,0.236916 0.529167,0.529167 0,0.260038 -0.236916,0.470833 -0.529167,0.470833 H 77.529167 C 77.236916,47.999996 77,47.76308 77,47.470829 c 0,-0.260038 0.236916,-0.470833 0.529167,-0.470833 z"
         transform="matrix(3.7375729,0,0,3.9444612,-271.42188,-125.29216)" /><path
         style="opacity:0.536783;fill:#333333;stroke:none;stroke-width:0.3175;stroke-linejoin:bevel;paint-order:markers fill stroke"
         id="path12"
         width="4"
         height="0.99999994"
         x="77"
         y="46.999996"
         d="m 77.529167,46.999996 h 2.941666 c 0.292251,0 0.529167,0.236916 0.529167,0.529167 0,0.260038 -0.236916,0.470833 -0.529167,0.470833 H 77.529167 C 77.236916,47.999996 77,47.76308 77,47.470829 c 0,-0.260038 0.236916,-0.470833 0.529167,-0.470833 z"
         transform="matrix(3.7375729,0,0,3.9444612,-271.42187,-117.39227)" /><path
         style="opacity:0.536783;fill:#333333;stroke:none;stroke-width:0.3175;stroke-linejoin:bevel;paint-order:markers fill stroke"
         id="path14"
         width="4"
         height="0.99999994"
         x="77"
         y="46.999996"
         d="m 77.529167,46.999996 h 2.941666 c 0.292251,0 0.529167,0.236916 0.529167,0.529167 0,0.260038 -0.236916,0.470833 -0.529167,0.470833 H 77.529167 C 77.236916,47.999996 77,47.76308 77,47.470829 c 0,-0.260038 0.236916,-0.470833 0.529167,-0.470833 z"
         transform="matrix(4.6719661,0,0,3.9444612,-343.37014,-109.50335)" /><path
         style="opacity:0.536783;fill:#333333;stroke:none;stroke-width:0.3175;stroke-linejoin:bevel;paint-order:markers fill stroke"
         id="path16"
         width="4"
         height="0.99999994"
         x="77"
         y="46.999996"
         d="m 77.529167,46.999996 h 2.941666 c 0.292251,0 0.529167,0.236916 0.529167,0.529167 0,0.260038 -0.236916,0.470833 -0.529167,0.470833 H 77.529167 C 77.236916,47.999996 77,47.76308 77,47.470829 c 0,-0.260038 0.236916,-0.470833 0.529167,-0.470833 z"
         transform="matrix(4.6719661,0,0,3.9444612,-279.83584,-109.50335)" /><path
         style="opacity:0.536783;fill:#333333;stroke:none;stroke-width:0.3175;stroke-linejoin:bevel;paint-order:markers fill stroke"
         id="path18"
         width="4"
         height="0.99999994"
         x="77"
         y="46.999996"
         d="m 77.529167,46.999996 h 2.941666 c 0.292251,0 0.529167,0.236916 0.529167,0.529167 0,0.260038 -0.236916,0.470833 -0.529167,0.470833 H 77.529167 C 77.236916,47.999996 77,47.76308 77,47.470829 c 0,-0.260038 0.236916,-0.470833 0.529167,-0.470833 z"
         transform="matrix(3.7375729,0,0,3.9444612,-204.14556,-117.39227)" /><ellipse
         style="opacity:0.536783;fill:#333333;stroke:none;stroke-width:1.21909;stroke-linejoin:bevel;paint-order:markers fill stroke"
         id="path20"
         cx="18.24004"
         cy="26.580523"
         rx="1.8687866"
         ry="1.9722304" /><ellipse
         style="opacity:0.536783;fill:#333333;stroke:none;stroke-width:1.21909;stroke-linejoin:bevel;paint-order:markers fill stroke"
         id="ellipse20"
         cx="25.797199"
         cy="26.580523"
         rx="1.8687866"
         ry="1.9722304" /><ellipse
         style="opacity:0.536783;fill:#333333;stroke:none;stroke-width:1.21909;stroke-linejoin:bevel;paint-order:markers fill stroke"
         id="ellipse21"
         cx="33.354397"
         cy="26.580523"
         rx="1.8687866"
         ry="1.9722304" /><path
         id="path21"
         style="opacity:1;fill:#0a5400;fill-opacity:1;stroke:none;stroke-width:1.22836;stroke-linejoin:bevel;paint-order:markers fill stroke"
         d="M 94.545144,29.418904 A 16.242124,16.883199 0 0 0 78.302524,46.302616 16.242124,16.883199 0 0 0 94.545144,63.186329 16.242124,16.883199 0 0 0 110.78777,46.302616 16.242124,16.883199 0 0 0 94.545144,29.418904 Z m 0,3.87084 A 12.51939,13.013529 0 0 1 107.06389,46.302616 12.51939,13.013529 0 0 1 94.545144,59.315488 12.51939,13.013529 0 0 1 82.026414,46.302616 12.51939,13.013529 0 0 1 94.545144,33.289744 Z" /><path
         style="opacity:1;fill:#0a5400;fill-opacity:1;stroke:none;stroke-width:1.21909;stroke-linejoin:bevel;paint-order:markers fill stroke"
         d="m 88.475904,44.628854 -2.72264,3.332378 7.47517,7.743328 10.597066,-12.401876 -3.12193,-3.94446 -7.475136,10.038603 z"
         id="path22" /><path
         id="path79"
         style="fill:#0a5200;fill-opacity:1;stroke:none;stroke-width:0.826906;stroke-linejoin:bevel;stroke-dasharray:none;paint-order:markers fill stroke"
         d="m 48.859654,40.517964 c -0.75618,0.46134 -0.79039,1.85893 -0.48559,2.66906 0.3439,0.77611 -0.0829,1.66841 -0.91905,1.92195 l -1.12488,0.34134 c -0.98409,0.29855 -1.76892,1.019003 -2.12514,1.950862 l -0.34705,0.908393 c -0.23021,0.603217 0.3593,1.198173 0.99641,1.005574 l 2.46196,-0.744189 c 0.98595,-0.297919 2.05938,-0.14543 2.9138,0.413913 l 4.07833,2.669835 c 0.58231,0.488448 1.30387,0.797032 2.0708,0.88564 0.47794,-0.417315 1.2218,-0.363702 1.62978,0.117468 -0.05,0.919558 -0.7556,1.682996 -1.69881,1.838313 l -1.66813,0.27493 c -0.27965,0.04784 -0.5058,0.245896 -0.58161,0.509243 -0.78304,-0.09432 -1.52044,-0.406381 -2.12195,-0.897938 l -0.20124,-0.168517 -2.74572,-2.300815 c 0,0 -1.64439,0.229047 -3.47181,1.024637 -1.48485,0.646453 -2.91556,1.593618 -4.00291,2.955204 -1.09526,1.371506 -1.02087,4.125868 -0.45123,5.77633 l 0.0189,0.05719 c 0.5948,1.723468 2.17413,2.958712 4.04892,3.166772 l 3.46029,0.38439 c 0.83979,0.09325 1.4441,0.824947 1.42209,1.637817 -0.10582,3.894071 0.60123,11.046559 1.97878,12.720596 0.57832,0.702854 2.23988,-0.903207 3.02118,-1.40841 0.82467,-0.533135 1.44655,-1.310111 1.77168,-2.213481 l 1.29363,-3.595447 c 0.54218,-0.973775 0.90381,-2.031045 1.06865,-3.124335 -0.0221,-1.450767 0.36546,-2.880088 1.12037,-4.136054 l 0.42695,-0.710972 c 1.29823,-0.264097 1.824,-1.773088 0.9536,-2.736868 -1.48796,-0.02582 -2.76915,-1.017339 -3.1145,-2.410289 l 1.83942,1.423171 c 0.71133,0.57782 1.74268,0.607644 2.48881,0.07196 0.75642,-0.570216 1.0105,-1.563709 0.6155,-2.406601 l -0.77787,-1.659341 c -0.28943,-0.616937 0.24909,-1.296446 0.94398,-1.190693 l 2.62817,0.39854 c 1.01226,0.153495 2.0384,-0.180706 2.74572,-0.894251 l 5.35658,-5.404237 c 0.57327,-0.578357 0.99073,-2.254912 0.2677,-2.648127 -2.33934,-2.850443 -5.2104,-5.019123 -8.61319,-6.506023 -0.93804,-0.51047 -7.4729,-1.68076 -8.5472,-1.76216 -3.52631,-0.55072 -8.36478,1.68492 -8.62487,1.79562 z" /><ellipse
         style="opacity:1;fill:none;fill-opacity:1;stroke:#000000;stroke-width:0.826906;stroke-linejoin:bevel;stroke-dasharray:none;paint-order:markers fill stroke"
         id="circle78"
         cx="57.484554"
         cy="62.69043"
         rx="22.710972"
         ry="23.968109" /></g></g></svg>
