<?xml version="1.0" encoding="UTF-8" standalone="no"?>
<!-- Created with Inkscape (http://www.inkscape.org/) -->

<svg
   version="1.1"
   id="svg1"
   width="655.35999"
   height="655.35999"
   viewBox="0 0 655.35999 655.35999"
   sodipodi:docname="brain.png"
   xml:space="preserve"
   inkscape:export-filename="join3.svg"
   inkscape:export-xdpi="96"
   inkscape:export-ydpi="96"
   xmlns:inkscape="http://www.inkscape.org/namespaces/inkscape"
   xmlns:sodipodi="http://sodipodi.sourceforge.net/DTD/sodipodi-0.dtd"
   xmlns="http://www.w3.org/2000/svg"
   xmlns:svg="http://www.w3.org/2000/svg"><defs
     id="defs1" /><sodipodi:namedview
     id="namedview1"
     pagecolor="#ffffff"
     bordercolor="#000000"
     borderopacity="0.25"
     inkscape:showpageshadow="2"
     inkscape:pageopacity="0.0"
     inkscape:pagecheckerboard="0"
     inkscape:deskcolor="#d1d1d1"><inkscape:page
       x="0"
       y="0"
       width="655.35999"
       height="655.35999"
       id="page2"
       margin="0"
       bleed="0" /></sodipodi:namedview><g
     inkscape:groupmode="layer"
     inkscape:label="Image"
     id="g1"><g
       id="layer1-7"
       transform="matrix(6.3158662,0,0,6.3158662,-38.952274,-37.246572)"><path
         style="fill:#000000;fill-opacity:1;stroke:none;stroke-width:1.39327;stroke-linejoin:bevel;stroke-dasharray:none;stroke-opacity:1;paint-order:markers fill stroke"
         d="m 14.672229,52.973839 -7.2720597,6.017888 7.2720597,6.017886 7.27204,-6.017886 z"
         id="path19" /><path
         style="fill:#000000;fill-opacity:1;stroke:none;stroke-width:0.79375;stroke-linejoin:bevel;paint-order:markers fill stroke"
         d="m 118.52339,22.082566 1.37987,0.0091 a 1.8007593,1.8007593 45.188858 0 1 1.78889,1.80072 v 3.362232 a 1.790898,1.790898 133.9765 0 1 -1.72693,1.789755 l -1.5078,0.05389 0.54308,-1.621227 a 2.3187118,2.3187118 102.0101 0 0 0.1094,-0.514247 l 0.16688,-1.732994 z"
         id="path15"
         transform="matrix(0,3.1492679,3.1492679,0,-21.913731,-288.09904)" /><path
         style="fill:#000000;fill-opacity:1;stroke:none;stroke-width:0.79375;stroke-linejoin:bevel;paint-order:markers fill stroke"
         d="m 118.52339,22.082566 1.37987,0.0091 a 1.8007593,1.8007593 45.188858 0 1 1.78889,1.80072 v 3.362232 a 1.790898,1.790898 133.9765 0 1 -1.72693,1.789755 l -1.5078,0.05389 0.54308,-1.621227 a 2.3187118,2.3187118 102.0101 0 0 0.1094,-0.514247 l 0.16688,-1.732994 z"
         id="path11"
         transform="matrix(0,-3.1492679,3.1492679,0,-21.913731,403.65776)" /><path
         style="fill:#000000;fill-opacity:1;stroke:none;stroke-width:0.79375;stroke-linejoin:bevel;paint-order:markers fill stroke"
         d="m 118.7202,22.017742 1.18377,0.03414 a 1.8412628,1.8412628 45.825966 0 1 1.78818,1.840498 v 3.362232 a 1.790898,1.790898 133.9765 0 1 -1.72693,1.789755 l -1.5078,0.05389 0.54308,-1.621227 a 2.3187118,2.3187118 102.0101 0 0 0.1094,-0.514247 l 0.16688,-1.732994 z"
         id="path1"
         transform="matrix(3.1492679,0,0,3.1492679,-287.37715,-21.450174)" /><rect
         style="opacity:1;fill:#000000;fill-opacity:1;stroke:none;stroke-width:2.70245;stroke-linejoin:bevel;stroke-dasharray:none;stroke-opacity:1;paint-order:markers fill stroke"
         id="rect86"
         width="11.85926"
         height="12.035782"
         x="96.839378"
         y="52.973827" /><path
         id="path325"
         style="opacity:1;fill:#0a5200;fill-opacity:1;stroke:none;stroke-width:1.03787;stroke-linejoin:bevel;stroke-dasharray:none;paint-order:markers fill stroke"
         d="m 48.220279,30.666646 c -0.9661,0.56885 -1.00985,2.29206 -0.62041,3.29095 0.43936,0.95694 -0.10581,2.05714 -1.17427,2.36976 l -1.43723,0.42087 c -1.25734,0.3681 -2.2601,1.25642 -2.71523,2.4054 l -0.44342,1.12006 c -0.29414,0.74376 0.4591,1.47734 1.27309,1.23985 l 3.14559,-0.91757 c 1.2597,-0.36735 2.6312,-0.17932 3.7229,0.51035 l 5.21079,3.291897 c 0.74397,0.60225 1.66589,0.982737 2.64582,1.091981 0.61064,-0.514549 1.561,-0.448438 2.08233,0.144839 -0.0643,1.133809 -0.96545,2.075126 -2.17054,2.266633 l -2.13133,0.338969 c -0.3572,0.05899 -0.64626,0.303211 -0.74314,0.627891 -1.00046,-0.116303 -1.94262,-0.501068 -2.71114,-1.107153 l -0.25729,-0.20779 -3.50819,-2.836893 c 3e-5,0 -2.10095,0.282422 -4.43578,1.263375 -1.89719,0.79707 -3.72514,1.964916 -5.11447,3.643747 -1.39935,1.691062 -1.30431,5.087179 -0.57651,7.122191 l 0.0221,0.07051 c 0.75995,2.125032 2.77784,3.648081 5.1732,3.904618 l 4.42113,0.473948 c 1.07293,0.11498 1.8451,1.017161 1.81698,2.019424 -0.13511,4.801374 0.76816,13.620363 2.52819,15.684444 0.73895,0.866613 2.86184,-1.11365 3.86009,-1.736563 1.05366,-0.657355 1.84825,-1.615363 2.26367,-2.729216 l 1.65279,-4.433169 c 0.69274,-1.200662 1.15477,-2.504271 1.3654,-3.852296 -0.0252,-1.788786 0.46698,-3.55113 1.43151,-5.099735 l 0.54548,-0.876621 c 1.65869,-0.325644 2.33048,-2.186213 1.21839,-3.374548 -1.90116,-0.03181 -3.53808,-1.254375 -3.97933,-2.971876 l 2.35018,1.75476 c 0.90885,0.712453 2.22659,0.749223 3.17988,0.08871 0.96644,-0.70307 1.2911,-1.928047 0.78637,-2.967328 l -0.99378,-2.04596 c -0.36998,-0.760684 0.31832,-1.598514 1.2061,-1.468119 l 3.35794,0.491399 c 1.29338,0.18924 2.60441,-0.222811 3.50816,-1.102609 l 6.84398,-6.6634 c 0.73247,-0.71312 1.26579,-2.7803 0.34186,-3.26513 -12.44106,-14.67695 -31.26921,-9.65708 -32.94515,-7.98064 z" /><ellipse
         style="opacity:1;fill:#000000;fill-opacity:1;stroke:none;stroke-width:2.70245;stroke-linejoin:bevel;stroke-dasharray:none;stroke-opacity:1;paint-order:markers fill stroke"
         id="path80"
         cx="58.624138"
         cy="13.408926"
         rx="5.9296303"
         ry="6.0178909" /><path
         style="opacity:1;fill:#000000;fill-opacity:1;stroke:none;stroke-width:2.70245;stroke-linejoin:bevel;stroke-dasharray:none;stroke-opacity:1;paint-order:markers fill stroke"
         d="m 58.624069,108.16764 -5.92963,-12.035807 h 11.85927 z"
         id="path87" /><ellipse
         style="fill:#b9b9b9;fill-opacity:0.0673369;stroke:#000000;stroke-width:1.03787;stroke-linejoin:bevel;stroke-dasharray:none;paint-order:markers fill stroke"
         id="path324"
         cx="59.240135"
         cy="58.005207"
         rx="29.017237"
         ry="29.552582" /><path
         style="fill:#000000;fill-opacity:1;stroke:none;stroke-width:0.79375;stroke-linejoin:bevel;paint-order:markers fill stroke"
         d="m 118.7202,22.017742 1.18377,0.03414 a 1.8412628,1.8412628 45.825966 0 1 1.78818,1.840498 v 3.362232 a 1.790898,1.790898 133.9765 0 1 -1.72693,1.789755 l -1.5078,0.05389 0.54308,-1.621227 a 2.3187118,2.3187118 102.0101 0 0 0.1094,-0.514247 l 0.16688,-1.732994 z"
         id="path2"
         transform="matrix(-3.1492679,0,0,3.1492679,405.46998,-21.450174)" /></g></g></svg>
