<?xml version="1.0" encoding="UTF-8" standalone="no"?>
<!-- Created with Inkscape (http://www.inkscape.org/) -->

<svg
   version="1.1"
   id="svg1"
   width="655.35999"
   height="655.35999"
   viewBox="0 0 655.35999 655.35999"
   sodipodi:docname="brain.png"
   xml:space="preserve"
   inkscape:export-filename="join6.svg"
   inkscape:export-xdpi="96"
   inkscape:export-ydpi="96"
   xmlns:inkscape="http://www.inkscape.org/namespaces/inkscape"
   xmlns:sodipodi="http://sodipodi.sourceforge.net/DTD/sodipodi-0.dtd"
   xmlns="http://www.w3.org/2000/svg"
   xmlns:svg="http://www.w3.org/2000/svg"><defs
     id="defs1" /><sodipodi:namedview
     id="namedview1"
     pagecolor="#ffffff"
     bordercolor="#000000"
     borderopacity="0.25"
     inkscape:showpageshadow="2"
     inkscape:pageopacity="0.0"
     inkscape:pagecheckerboard="0"
     inkscape:deskcolor="#d1d1d1"><inkscape:page
       x="0"
       y="0"
       width="655.35999"
       height="655.35999"
       id="page2"
       margin="0"
       bleed="0" /></sodipodi:namedview><g
     inkscape:groupmode="layer"
     inkscape:label="Image"
     id="g1"><g
       id="layer1"
       transform="matrix(6.0903782,0,0,6.0903782,-36.650708,-10.12554)"><path
         style="fill:#000000;fill-opacity:1;stroke:#000000;stroke-width:0.0926042;stroke-linejoin:bevel;paint-order:markers fill stroke"
         d="m 165.56127,99.438731 3.87746,-3.877468 a 1.916282,1.916282 157.5 0 1 1.35502,-0.561266 h 23.4125 c 0.43838,0 1.10649,0.171381 1.46304,0.426115 1.78437,1.274841 1.77423,2.642586 -0.0304,4.103237 -0.34064,0.275706 -0.99422,0.470648 -1.4326,0.470648 h -13.4125 a 1.2843136,1.2843136 148.28251 0 0 -1.14873,0.709953 l -0.29004,0.5801 a 1.10127,1.10127 80.782508 0 0 0.20629,1.27122 1.7093041,1.7093041 19.594479 0 0 1.23248,0.43873 h 13.4125 a 2.3812494,2.3812494 161.56505 0 0 1.42875,-0.47625 l 6.73,-5.047502 a 16.819621,16.819621 140.4282 0 0 1.22233,-1.010184 l 9.82534,-8.932133 c 0.32437,-0.294884 0.93453,-0.623225 1.37156,-0.650679 0.84238,-0.05292 1.59496,0.148599 2.25774,0.60455 0.36072,0.24815 0.60488,0.867676 0.6211,1.305709 0.0407,1.098204 0.0743,2.010245 -0.98314,3.566626 -0.24621,0.362369 -0.68723,0.920294 -0.96539,1.259097 -6.13327,7.470206 -19.25575,17.357896 -22.18798,19.194626 C 193.26516,112.9776 192.64463,113 192.20625,113 h -18.4125 a 1.4204666,1.4204666 29.196252 0 1 -1.20975,-0.676 l -7.168,-11.648 a 1.0049267,1.0049267 96.696252 0 1 0.14527,-1.237269 z"
         id="path5"
         transform="matrix(1.5420121,0,0,1.5420121,-229.27766,-77.001708)" /><path
         style="fill:#000000;fill-opacity:1;stroke:#000000;stroke-width:0.142797;stroke-linejoin:bevel;paint-order:markers fill stroke"
         d="m 16.180857,83.379445 6.58205,-4.0152 12.045577,19.74613 -6.582037,4.015175 z"
         id="path13" /><path
         id="path22-7"
         style="fill:none;fill-opacity:1;stroke:#0a5200;stroke-width:3.26393;stroke-linecap:butt;stroke-linejoin:bevel;stroke-dasharray:none;stroke-dashoffset:0;stroke-opacity:1;paint-order:markers fill stroke"
         d="m 50.494074,20.609645 a 9.7472174,15.835513 0 0 1 8.70179,-8.70071 9.7472174,15.835513 0 0 1 9.74722,15.83552 v 0 a 9.7472174,15.835513 0 0 1 -0.16216,2.87661" /><rect
         style="fill:none;fill-opacity:1;stroke:#0a5200;stroke-width:3.26393;stroke-linecap:round;stroke-linejoin:bevel;stroke-dasharray:none;stroke-dashoffset:0;stroke-opacity:1;paint-order:markers fill stroke"
         id="rect22"
         width="31.685598"
         height="29.679544"
         x="43.908295"
         y="30.956144" /><g
         id="g13"
         style="fill:#15590c;fill-opacity:1"
         transform="matrix(1.5420121,0,0,1.5420121,-229.27766,-77.001708)"><ellipse
           style="fill:#15590c;fill-opacity:1;stroke:none;stroke-width:1.85558;stroke-linecap:round;stroke-linejoin:bevel;stroke-dasharray:none;stroke-dashoffset:0;stroke-opacity:1;paint-order:markers fill stroke"
           id="path23"
           cx="187.43611"
           cy="76.519562"
           rx="3.41798"
           ry="3.219238" /><path
           style="fill:#15590c;fill-opacity:1;stroke:none;stroke-width:1.55001;stroke-linecap:round;stroke-linejoin:bevel;stroke-dasharray:none;stroke-dashoffset:0;stroke-opacity:1;paint-order:markers fill stroke"
           d="m 185.60725,78.148619 -1.58913,7.7328 6.83597,-0.03 -1.70818,-7.70284 z"
           id="path24" /></g></g></g></svg>
